<?xml version="1.0" encoding="UTF-8"?>
<svg id="Layer_1" data-name="Layer 1" xmlns="http://www.w3.org/2000/svg" version="1.1" viewBox="0 0 800 800">
	<defs>
		<style>
			.cls-1 {
				fill: #333;
				stroke-width: 0px;
			}
		</style>
	</defs>
	<g>
		<path class="cls-1" d="M483.7,357.7h-.3c0,0-.2-.1-.2-.1l-88.7-19.5c-27.3-6.1-43.3-26.8-41.8-54.1v-.4s0-.4,0-.4c.3-3.9.8-8.1,1.3-12.4h-221.3v133.7h367.6v-45.8c-1.5.1-3,.2-4.6.2-3.9,0-7.9-.4-12.1-1.3Z" />
		<path class="cls-1" d="M132.8,204v33.4h228.2c3.1-10.9,7.3-22.2,12.7-33.4h-241Z" />
		<rect class="cls-1" x="333.4" y="571.6" width="100.3" height="33.4" />
		<path class="cls-1" d="M333.4,538.2h147.6c3.1-3.5,6.8-6.5,10.9-8.9-3.6-2.4-6.8-5.3-9.5-8.6-3.9-4.7-6.7-10.1-8.4-15.9h-140.5v33.4Z" />
		<path class="cls-1" d="M333.4,471.3h141.2c2.7-12.5,6.1-23.5,10.2-33.4h-151.3v33.4Z" />
		<rect class="cls-1" x="132.8" y="571.6" width="167.1" height="33.4" />
		<rect class="cls-1" x="132.8" y="504.8" width="167.1" height="33.4" />
		<rect class="cls-1" x="132.8" y="437.9" width="167.1" height="33.4" />
		<path class="cls-1" d="M468.6,638.4H116.1c-9.2,0-16.7-7.5-16.7-16.7V170.5h295.4c1.1-1.3,2.2-2.7,3.3-4,9.5-11.2,20.2-21,32.1-29.4H66v484.6c0,27.7,22.5,50.1,50.1,50.1h353.5c-.7-3.7-1.1-7.5-1.1-11.5v-21.9Z" />
	</g>
	<g>
		<path class="cls-1" d="M519.5,683.7h87.1c15.6,0,23.3-8.6,23.3-23.3v-87.1c0-15.6-7.8-23.3-23.3-23.3h-87.1c-14.8,0-23.3,7.8-23.3,23.3v87.1c0,14.8,8.6,23.3,23.3,23.3Z" />
		<path class="cls-1" d="M754.4,286.3c.8-23.3-5.4-161-179.6-161s-189.8,104.2-194.4,160.2c-.8,14,6.2,22.6,20.2,25.7l88.7,19.4c2.4.5,4.7.7,6.7.7,11.1,0,17-7,19-20.2,5.4-31.9,23.3-52.1,59.9-52.1s42.8,28,38.1,51.3c-16.3,79.3-94.1,68.4-112.8,174.2-3.1,16.3,6.2,25.7,21.8,25.7h87.9c14,0,21-6.2,26.4-19.4,28-64.6,118.2-75.4,118.2-204.5Z" />
	</g>
</svg>