<svg width="358" height="310" viewBox="0 0 358 310" fill="none" xmlns="http://www.w3.org/2000/svg">
<path d="M260.136 210.804L261.007 210.956L261.18 210.088C263.122 200.358 265.939 192.561 269.602 186.66L269.605 186.655C273.269 180.665 279.189 175.134 287.433 170.084L287.443 170.078L287.453 170.072C297.144 163.791 305.942 157.867 313.845 152.3C321.953 146.588 328.716 140.114 334.124 132.876C339.718 125.482 343.44 116.356 345.317 105.53C348.125 89.3353 346.983 75.0369 341.829 62.6747C336.7 50.1955 327.992 39.973 315.746 32.0096C303.513 24.0545 288.244 18.5068 269.971 15.3386C253.43 12.4708 237.952 12.6268 223.544 15.8249C209.24 18.9295 197.015 25.7138 186.889 36.1685L186.887 36.17C176.877 46.5539 170.094 61.0906 166.48 79.7008L166.304 80.6096L167.216 80.7677L230.55 91.7487L231.414 91.8984L231.593 91.0405C233.078 83.9391 235.348 78.5228 238.353 74.7228L238.353 74.7229L238.359 74.7145C241.415 70.755 244.902 68.1035 248.812 66.7018C252.896 65.3045 257.033 64.9722 261.239 65.7013C266.481 66.6102 270.549 68.3832 273.511 70.967L273.525 70.9794L273.54 70.9911C276.635 73.4724 278.682 76.805 279.671 81.0371L279.673 81.0484L279.676 81.0595C280.788 85.3262 280.819 90.6415 279.709 97.0419C278.825 102.14 276.904 106.737 273.945 110.843C270.968 114.974 267.011 118.895 262.058 122.601C257.081 126.324 251.259 130.1 244.588 133.928L244.579 133.933L244.57 133.939C236.9 138.569 230.508 143.954 225.408 150.097C220.31 156.239 216.205 163.452 213.085 171.724L213.082 171.734C210.117 179.883 207.685 189.46 205.778 200.459L205.623 201.353L206.517 201.508L260.136 210.804ZM202.27 234.587C194.542 239.582 189.867 246.715 188.27 255.926C186.673 265.138 188.664 273.488 194.234 280.916L194.24 280.923C199.842 288.237 207.951 292.782 218.472 294.606C228.993 296.43 238.158 294.88 245.895 289.88L245.903 289.874C253.648 284.755 258.334 277.563 259.931 268.351C261.528 259.14 259.528 250.85 253.933 243.544C248.353 236.106 240.255 231.496 229.73 229.671C219.206 227.846 210.028 229.461 202.27 234.587Z" stroke="white" stroke-opacity="0.1" stroke-width="1.81447"/>
<path d="M52.2495 212.342L51.3687 212.424L51.2648 211.546C50.5317 205.35 49.1564 200.345 47.1702 196.495L47.1676 196.49C45.1922 192.598 41.7851 188.86 36.8774 185.29L36.8681 185.284L36.859 185.276C31.0708 180.838 25.8267 176.667 21.1274 172.766C16.2863 168.746 12.3295 164.309 9.26697 159.45C6.08264 154.465 4.18309 148.483 3.53879 141.535C2.57627 131.154 4.01415 122.147 7.91017 114.556C11.7947 106.893 17.8361 100.848 25.9945 96.4193C34.1397 91.9975 44.0722 89.2597 55.7631 88.1757C66.3524 87.1938 76.1298 88.0674 85.0837 90.814C93.9927 93.5013 101.403 98.4186 107.296 105.555L107.297 105.556C113.131 112.655 116.689 122.209 118.039 134.145L118.143 135.065L117.221 135.15L76.8155 138.897L75.9428 138.978L75.8318 138.108C75.2558 133.595 74.1089 130.129 72.4469 127.646L72.4469 127.646L72.4411 127.637C70.7449 125.037 68.7299 123.242 66.4082 122.195C63.9598 121.135 61.4297 120.729 58.8041 120.972C55.5021 121.278 52.9168 122.176 50.9861 123.608L50.971 123.619L50.9554 123.63C48.9511 124.991 47.5394 126.922 46.7263 129.471L46.7228 129.482L46.7191 129.493C45.8271 132.062 45.5409 135.353 45.9169 139.408C46.214 142.612 47.1777 145.551 48.8078 148.239C50.4544 150.953 52.7247 153.593 55.6361 156.154C58.5699 158.735 62.0342 161.394 66.0326 164.131L66.0409 164.137L66.049 164.142C70.6715 167.459 74.4526 171.193 77.3791 175.348C80.3044 179.501 82.5428 184.28 84.1017 189.673L84.1017 189.673L84.1046 189.684C85.5695 194.983 86.6248 201.152 87.2768 208.183L87.3606 209.087L86.4572 209.171L52.2495 212.342ZM87.6507 229.602C92.3391 233.19 94.9702 237.997 95.5234 243.964C96.0768 249.932 94.3776 255.179 90.44 259.645L90.4337 259.652C86.4769 264.047 81.0635 266.533 74.283 267.161C67.5025 267.79 61.7243 266.343 57.0267 262.749L57.0194 262.744C52.3277 259.078 49.6928 254.233 49.1394 248.265C48.5861 242.299 50.2882 237.089 54.2368 232.701C58.185 228.225 63.5958 225.697 70.3799 225.068C77.1637 224.439 82.9469 225.928 87.6507 229.602Z" stroke="white" stroke-opacity="0.1" stroke-width="1.81447"/>
</svg>
