<svg width="27" height="28" viewBox="0 0 27 28" fill="none" xmlns="http://www.w3.org/2000/svg">
<path d="M12.037 1.41717C12.6361 0.416442 14.0306 0.416444 14.6297 1.41718L18.148 7.29371C18.3578 7.64428 18.6895 7.89619 19.0734 7.99651L25.5073 9.67818C26.6029 9.96455 27.0338 11.3509 26.3085 12.2557L22.049 17.5693C21.7948 17.8863 21.6681 18.2939 21.6955 18.7065L22.1536 25.6223C22.2316 26.8001 21.1035 27.6569 20.056 27.2154L13.9053 24.6228C13.5383 24.4681 13.1283 24.4681 12.7614 24.6228L6.61064 27.2154C5.56321 27.6569 4.43504 26.8001 4.51305 25.6223L4.97119 18.7065C4.99852 18.2939 4.87183 17.8863 4.61772 17.5693L0.358203 12.2557C-0.367162 11.3509 0.0637663 9.96455 1.15941 9.67818L7.59332 7.99651C7.97714 7.89619 8.30883 7.64428 8.51872 7.29371L12.037 1.41717Z" fill="#FFE55A"/>
</svg>
